# Blender 5.2.2 LTS
# www.blender.org
mtllib cutlass.mtl
o cutlas
v 4.718439 4.282869 1.098190
v 4.727061 4.696241 1.098189
v 4.718439 4.282869 0.974919
v 4.727061 4.696241 0.974919
v 4.937379 4.314116 1.098190
v 4.947794 4.704913 1.098189
v 4.937379 4.314116 0.974919
v 4.947794 4.704913 0.974919
v 4.700383 3.966329 1.098190
v 4.700383 3.966329 0.974919
v 4.919323 3.997576 1.098190
v 4.919323 3.997576 0.974919
v 4.919323 3.997576 1.098190
v 4.919323 3.997576 0.974919
v 4.668652 3.696064 1.098190
v 4.690351 3.687384 0.974919
v 4.924915 3.729046 1.098190
v 4.924915 3.729046 0.974919
v 4.924915 3.729046 1.098190
v 4.924915 3.729046 0.974919
v 4.653317 3.243149 1.098190
v 4.653317 3.243149 0.974919
v 4.919128 3.300434 1.098190
v 4.919128 3.300434 0.974919
v 4.919128 3.300434 1.098190
v 4.919128 3.300434 0.974919
v 4.655861 2.845751 1.098190
v 4.655861 2.845751 0.974919
v 4.921671 2.903036 1.098190
v 4.921671 2.903036 0.974919
v 4.921671 2.903036 1.098190
v 4.921671 2.903036 0.974919
v 4.676158 2.482213 1.098190
v 4.676158 2.482213 0.974919
v 4.941968 2.539499 1.098190
v 4.941968 2.539499 0.974919
v 4.941968 2.539499 1.098190
v 4.941968 2.539499 0.974919
v 4.744763 2.088054 1.098190
v 4.744763 2.088054 0.974919
v 4.979327 2.166171 1.098190
v 4.979327 2.166171 0.974919
v 4.979327 2.166171 1.098190
v 4.979327 2.166171 0.974919
v 4.822766 1.733868 1.098190
v 4.822766 1.733868 0.974919
v 5.020876 1.853647 1.098190
v 5.020876 1.853647 0.974919
v 5.020876 1.853647 1.098190
v 5.020876 1.853647 0.974919
v 4.951490 1.459266 1.098190
v 4.951490 1.459266 0.974919
v 5.092314 1.579045 1.098190
v 5.092314 1.579045 0.974919
v 5.092314 1.579045 1.098190
v 5.092314 1.579045 0.974919
v 5.048151 1.345623 1.098190
v 5.048151 1.345623 0.974919
v 5.136897 1.423740 1.098190
v 5.136897 1.423740 0.974919
v 5.136897 1.423740 1.098190
v 5.136897 1.423740 0.974919
v 5.141300 1.292152 1.098190
v 5.141300 1.292152 0.974919
v 5.175543 1.316977 1.098190
v 5.175543 1.316977 0.974919
v 5.175543 1.316977 1.098190
v 5.175543 1.316977 0.974919
v 5.176075 1.284027 1.098190
v 5.176075 1.284027 0.974919
v 5.184885 1.289474 1.098190
v 5.184885 1.289474 0.974919
v 5.184885 1.289474 1.098190
v 5.184885 1.289474 0.974919
v 4.727061 4.696241 1.098189
v 4.727061 4.696241 0.974919
v 4.947794 4.704913 0.974919
v 4.947794 4.704913 1.098189
v 4.933169 5.741935 1.136063
v 4.933169 5.741935 0.909548
v 4.746865 5.739103 0.909548
v 4.767563 5.732165 0.909548
v 4.827471 5.732327 0.909548
v 4.864394 5.733163 0.909548
v 4.902669 5.738732 0.909548
v 4.902669 5.738732 1.136063
v 4.864394 5.733163 1.136063
v 4.827471 5.732327 1.136063
v 4.767563 5.732165 1.136063
v 4.746865 5.739103 1.136063
v 4.919250 4.988485 1.136063
v 4.919250 4.988485 0.909548
v 4.756166 4.993855 0.909548
v 4.816074 4.994017 0.909548
v 4.852997 4.994853 0.909548
v 4.889590 4.989488 0.909548
v 4.889590 4.989488 1.136063
v 4.852997 4.994853 1.136063
v 4.816074 4.994017 1.136063
v 4.756166 4.993855 1.136063
v 4.926209 5.365211 0.909548
v 4.821773 5.363172 1.136063
v 4.761865 5.363010 1.136063
v 4.896129 5.364110 0.909548
v 4.896129 5.364110 1.136063
v 4.926209 5.365211 1.136063
v 4.821773 5.363172 0.909548
v 4.761865 5.363010 0.909548
v 4.858696 5.364008 1.136063
v 4.858696 5.364008 0.909548
v 4.730910 4.701057 1.136063
v 4.749103 4.977143 1.136063
v 4.730910 4.701057 0.909548
v 4.749103 4.977143 0.909548
v 4.967599 4.709777 1.136063
v 4.925296 4.968474 1.136063
v 4.967599 4.709777 0.909548
v 4.925296 4.968474 0.909548
v 4.677977 4.850735 1.136063
v 4.677977 4.850735 0.909548
v 4.964693 4.843383 0.909548
v 4.964693 4.843383 1.136063
v 4.657774 4.751628 0.909548
v 4.970351 4.777421 0.909548
v 4.970351 4.777421 1.136063
v 4.657774 4.751628 1.136063
v 4.691428 4.714646 0.909548
v 4.968975 4.734347 0.909548
v 4.968975 4.734347 1.136063
v 4.691428 4.714646 1.136063
v 4.689959 4.877643 1.136063
v 4.703343 4.898663 1.136063
v 4.717428 4.925290 1.136063
v 4.733616 4.953319 1.136063
v 4.733616 4.953319 0.909548
v 4.717428 4.925290 0.909548
v 4.703343 4.898663 0.909548
v 4.689959 4.877643 0.909548
v 4.933315 4.950745 0.909548
v 4.944139 4.927409 0.909548
v 4.954962 4.899868 0.909548
v 4.959476 4.871625 0.909548
v 4.933315 4.950745 1.136063
v 4.944139 4.927409 1.136063
v 4.954962 4.899868 1.136063
v 4.959476 4.871625 1.136063
v 4.541063 4.968448 1.136063
v 4.541063 4.968448 0.909548
v 4.507834 4.830202 0.909548
v 4.507834 4.830202 1.136063
v 4.607176 4.891890 0.909548
v 4.605118 4.898026 1.136428
v 4.578814 4.788216 1.136063
v 4.578814 4.788216 0.909548
v 4.646470 4.868878 1.136063
v 4.622284 4.768044 0.909548
v 4.646470 4.868878 0.909548
v 4.622284 4.768044 1.136063
v 4.626336 4.876003 0.909548
v 4.600549 4.778247 1.136063
v 4.624278 4.882141 1.136428
v 4.600549 4.778247 0.909548
v 4.437756 5.336056 1.136063
v 4.437756 5.336056 0.909548
v 4.269050 5.255813 0.909548
v 4.269050 5.255813 1.136063
v 4.468275 4.860351 0.909548
v 4.423849 4.901045 0.909548
v 4.383073 4.961615 0.909548
v 4.347976 5.016506 0.909548
v 4.325453 5.085594 0.909548
v 4.300902 5.141296 0.909548
v 4.438781 5.268185 0.909548
v 4.447918 5.215727 0.909548
v 4.457462 5.158402 0.909548
v 4.473495 5.103917 0.909548
v 4.496017 5.058761 0.909548
v 4.518540 5.013604 0.909548
v 4.518540 5.013604 1.136063
v 4.496017 5.058761 1.136063
v 4.473495 5.103917 1.136063
v 4.457462 5.158402 1.136063
v 4.447918 5.215727 1.136063
v 4.438781 5.268185 1.136063
v 4.300902 5.141296 1.136063
v 4.325453 5.085594 1.136063
v 4.347976 5.016506 1.136063
v 4.383073 4.961615 1.136063
v 4.423849 4.901045 1.136063
v 4.468275 4.860351 1.136063
v 4.569526 5.718416 1.136063
v 4.569526 5.718416 0.909548
v 4.406662 5.705831 0.909548
v 4.406662 5.705831 1.136063
v 4.261889 5.334791 0.909548
v 4.267869 5.405494 0.909548
v 4.278231 5.464516 0.909548
v 4.291025 5.522564 0.909548
v 4.317449 5.593267 0.909548
v 4.522660 5.652580 0.909548
v 4.499643 5.617896 0.909548
v 4.476140 5.546705 0.909548
v 4.457991 5.482330 0.909548
v 4.446657 5.411627 0.909548
v 4.446657 5.411627 1.136063
v 4.457991 5.482330 1.136063
v 4.476140 5.546705 1.136063
v 4.499643 5.617896 1.136063
v 4.522660 5.652580 1.136063
v 4.317449 5.593267 1.136063
v 4.291025 5.522564 1.136063
v 4.278231 5.464516 1.136063
v 4.267869 5.405495 1.136063
v 4.261889 5.334791 1.136063
v 4.603579 5.744090 1.136063
v 4.603579 5.744090 0.909548
v 4.533195 5.808409 0.909548
v 4.533195 5.808409 1.136063
v 4.670977 5.776452 1.136063
v 4.670977 5.776452 0.909548
v 4.620062 5.850019 0.909548
v 4.620062 5.850019 1.136063
v 4.712383 5.775607 1.136063
v 4.712383 5.775607 0.909548
v 4.671046 5.865511 0.909548
v 4.671046 5.865511 1.136063
v 4.942708 5.785022 1.136063
v 4.942708 5.785022 0.909548
v 4.935659 5.867855 0.909548
v 4.935659 5.867855 1.136063
v 4.750320 5.775430 0.909548
v 4.788257 5.775252 0.909548
v 4.826194 5.775075 0.909548
v 4.864131 5.774898 0.909548
v 4.902068 5.774721 0.909548
v 4.902068 5.774721 1.136063
v 4.864131 5.774898 1.136063
v 4.826194 5.775075 1.136063
v 4.788257 5.775252 1.136063
v 4.750320 5.775430 1.136063
v 4.715148 5.865902 0.909548
v 4.759250 5.866292 0.909548
v 4.803353 5.866683 0.909548
v 4.847455 5.867074 0.909548
v 4.891557 5.867464 0.909548
v 4.891557 5.867464 1.136063
v 4.847455 5.867074 1.136063
v 4.803353 5.866683 1.136063
v 4.759250 5.866292 1.136063
v 4.715148 5.865902 1.136063
v 4.709942 5.763618 1.136063
v 4.709942 5.763618 0.909548
v 4.933169 5.741935 1.136063
v 4.933169 5.741935 0.909548
v 4.746865 5.739103 0.909548
v 4.767563 5.732165 0.909548
v 4.827471 5.732327 0.909548
v 4.864394 5.733163 0.909548
v 4.902669 5.738732 0.909548
v 4.902669 5.738732 1.136063
v 4.864394 5.733163 1.136063
v 4.827471 5.732327 1.136063
v 4.767563 5.732165 1.136063
v 4.746865 5.739103 1.136063
v 4.971909 5.781624 1.136063
v 4.971909 5.781624 0.909548
v 4.973355 5.768112 1.136063
v 4.973355 5.768112 0.909548
v 4.957989 5.763337 1.136063
v 4.957309 5.783323 1.136063
v 4.957309 5.783323 0.909548
v 4.957989 5.763337 0.909548
v 4.875557 6.022554 0.909548
v 4.875557 6.022554 1.136063
v 4.814019 6.024886 0.909548
v 4.825996 6.056428 0.909548
v 4.845274 6.063633 0.909548
v 4.862120 6.049421 0.909548
v 4.862120 6.049421 1.136063
v 4.845274 6.063633 1.136063
v 4.825996 6.056428 1.136063
v 4.814019 6.024886 1.136063
v 4.847260 5.889136 0.909548
v 4.803157 5.888745 1.136063
v 4.847260 5.889136 1.136063
v 4.891362 5.889527 0.909548
v 4.755648 5.882028 1.136063
v 4.755648 5.882028 0.909548
v 4.926338 5.888565 1.136063
v 4.891362 5.889527 1.136063
v 4.926338 5.888565 0.909548
v 4.803157 5.888745 0.909548
v 4.846842 5.925829 0.909548
v 4.846842 5.925829 1.136063
v 4.766659 5.920870 1.136027
v 4.914382 5.923124 1.135992
v 4.807960 5.924006 1.136063
v 4.885213 5.923149 0.909548
v 4.767922 5.912067 0.909548
v 4.885213 5.923149 1.136063
v 4.915659 5.916740 0.909548
v 4.807960 5.924006 0.909548
v 4.919250 4.988485 1.136063
v 4.919250 4.988485 0.909548
v 4.756166 4.993855 0.909548
v 4.816074 4.994017 0.909548
v 4.852997 4.994853 0.909548
v 4.889590 4.989488 0.909548
v 4.889590 4.989488 1.136063
v 4.852997 4.994853 1.136063
v 4.816074 4.994017 1.136063
v 4.756166 4.993855 1.136063
vn -0.4028 0.8141 0.4183
vn -0.0131 0.9999 -0.0000
vn -0.4028 0.8141 -0.4183
vn 0.4147 0.8186 -0.3974
vn 0.4147 0.8186 0.3974
vn -0.7025 0.0274 -0.7112
vn 0.7099 -0.0297 -0.7037
vn 0.4047 0.3822 -0.8307
vn -0.6914 0.0460 -0.7210
vn 0.9007 0.4345 -0.0000
vn 0.7058 0.7085 -0.0000
vn -0.0000 0.7110 -0.7032
vn -0.7140 0.0475 0.6985
vn -0.6672 0.0446 -0.7436
vn -0.7446 0.0503 0.6657
vn -0.7025 0.0274 0.7112
vn 0.7099 -0.0297 0.7037
vn 0.4047 0.3822 0.8307
vn 0.7083 0.7059 -0.0000
vn -0.0000 0.7110 0.7032
vn -0.0000 0.7049 0.7093
vn -0.7266 0.0188 0.6868
vn -0.7122 -0.0221 0.7016
vn -0.0000 0.7016 0.7126
vn -0.0000 0.7049 -0.7093
vn 0.6959 0.7181 -0.0000
vn -0.0000 0.7016 -0.7126
vn -0.7002 0.0181 -0.7137
vn 0.6790 0.7341 -0.0000
vn -0.0000 0.7022 0.7120
vn -0.7122 -0.0221 -0.7016
vn -0.7151 -0.0819 0.6942
vn -0.6986 -0.1377 0.7021
vn -0.0000 0.7035 0.7107
vn -0.0000 0.7022 -0.7120
vn 0.6649 0.7469 -0.0000
vn -0.0000 0.7035 -0.7107
vn -0.7151 -0.0819 -0.6942
vn -0.6986 -0.1377 -0.7021
vn -0.6915 -0.2350 -0.6830
vn -0.6915 -0.2350 0.6830
vn 0.6350 0.7725 -0.0000
vn -0.0000 0.6935 0.7205
vn -0.0000 0.7043 0.7099
vn 0.6067 0.7950 -0.0000
vn -0.0000 0.6935 -0.7205
vn -0.0000 0.7043 -0.7099
vn -0.6179 -0.3974 -0.6784
vn 0.5879 0.8089 -0.0000
vn -0.0000 0.6995 0.7146
vn -0.6179 -0.3974 0.6784
vn -0.4743 -0.5706 0.6704
vn -0.2702 -0.6858 0.6758
vn -0.0000 0.7093 0.7049
vn -0.0000 0.6995 -0.7146
vn 0.5783 0.8158 -0.0000
vn -0.0000 0.7094 -0.7049
vn -0.4743 -0.5706 -0.6704
vn 0.3777 0.9259 -0.0000
vn 0.3085 0.6742 0.6711
vn -0.2702 -0.6858 -0.6758
vn 0.1253 -0.7661 -0.6304
vn 0.3085 0.6742 -0.6711
vn 0.1253 -0.7661 0.6304
vn -0.0000 -0.0000 -1.0000
vn -0.3178 -0.9482 -0.0000
vn -0.0000 -0.0000 1.0000
vn 0.9998 -0.0185 -0.0000
vn -0.9999 0.0154 -0.0000
vn -0.8384 0.5450 -0.0000
vn 0.9111 0.4121 -0.0000
vn 0.0368 -0.9993 -0.0000
vn 0.9963 0.0855 -0.0000
vn 0.7486 0.6630 -0.0056
vn -0.7396 -0.6730 -0.0000
vn 0.9995 -0.0319 -0.0000
vn 0.9984 -0.0559 -0.0000
vn -0.3254 -0.9456 -0.0000
vn 0.9834 0.1816 -0.0000
vn 0.9875 0.1579 -0.0000
vn 0.9307 0.3658 -0.0000
vn 0.9072 0.4207 -0.0000
vn -0.9135 0.4068 -0.0000
vn -0.8435 0.5371 -0.0000
vn -0.8840 0.4676 -0.0000
vn -0.8659 0.5001 -0.0000
vn -0.5091 -0.8607 -0.0000
vn -0.0033 -0.0007 1.0000
vn -0.0019 -0.0030 1.0000
vn -0.4169 -0.9090 -0.0000
vn 0.6382 0.7697 -0.0150
vn 0.4990 0.8666 -0.0000
vn -0.4198 -0.9076 -0.0000
vn 0.4339 0.9009 -0.0102
vn -0.4249 -0.9052 -0.0000
vn 0.0065 -0.0033 1.0000
vn -0.9634 -0.2680 -0.0000
vn 0.9999 0.0151 -0.0000
vn 0.8949 0.4463 -0.0000
vn 0.9593 0.2823 -0.0000
vn 0.9864 0.1642 -0.0000
vn 0.9852 0.1716 -0.0000
vn -0.6062 -0.7953 -0.0000
vn -0.6755 -0.7374 -0.0000
vn -0.8295 -0.5584 -0.0000
vn -0.8425 -0.5387 -0.0000
vn -0.9508 -0.3099 -0.0000
vn -0.9151 -0.4033 -0.0000
vn -0.6297 0.7768 -0.0000
vn -0.7837 0.6211 -0.0000
vn 0.8147 -0.5799 -0.0000
vn 0.9931 -0.1170 -0.0000
vn 0.9874 -0.1583 -0.0000
vn 0.9625 -0.2713 -0.0000
vn 0.9496 -0.3135 -0.0000
vn 0.8332 -0.5529 -0.0000
vn -0.9959 -0.0903 -0.0000
vn -0.9964 0.0843 -0.0000
vn -0.9849 0.1729 -0.0000
vn -0.9766 0.2152 -0.0000
vn -0.9367 0.3501 -0.0000
vn 0.6020 -0.7985 -0.0000
vn -0.2907 0.9568 -0.0000
vn -0.4320 0.9019 -0.0000
vn 0.4329 -0.9015 -0.0000
vn -0.0204 -0.9998 -0.0000
vn 0.9964 0.0848 -0.0000
vn -0.0007 -0.0000 1.0000
vn -0.0089 1.0000 -0.0000
vn -0.9183 0.3958 -0.0103
vn -0.5531 -0.8331 -0.0000
vn -0.9799 0.1995 -0.0000
vn 0.9943 0.1064 -0.0000
vn 0.1156 0.9933 -0.0000
vn 0.2968 -0.9549 -0.0000
vn 0.6530 -0.7573 -0.0000
vn 0.8944 0.4473 -0.0000
vn -0.9349 0.3550 -0.0000
vn -0.3501 0.9367 -0.0000
vn 0.6448 0.7643 -0.0000
vn 0.0018 0.0002 1.0000
vn 0.9334 0.3589 -0.0024
vn 0.9119 0.4104 -0.0000
vn -0.9748 -0.2232 -0.0000
vn 0.9406 0.3394 -0.0021
vn 0.0011 0.0013 1.0000
vn -0.9473 0.3202 -0.0089
vn -0.0005 0.0006 1.0000
vn 0.1639 0.6515 -0.7407
vn 0.9211 -0.3893 -0.0000
vn -0.9573 -0.2892 -0.0000
vt 0.625000 0.000000
vt 0.625000 0.250000
vt 0.625000 0.500000
vt 0.625000 0.750000
vt 0.625000 1.000000
vt 0.875000 0.500000
vt 0.875000 0.750000
vt 0.375000 0.250000
vt 0.375000 0.500000
vt 0.000000 0.000000
vt 0.375000 0.000000
vt 0.375000 0.750000
vt 0.375000 1.000000
vt 0.125000 0.500000
vt 0.125000 0.750000
vt 0.769001 0.474178
vt 0.843344 0.472605
vt 0.844736 0.930862
vt 0.770393 0.932435
vt 0.972904 0.281157
vt 0.972904 0.000000
vt 1.000000 0.000000
vt 1.000000 0.281157
vt 0.767609 0.467680
vt 0.730304 0.465625
vt 0.730778 0.000564
vt 0.767609 0.000000
vt 0.935600 0.469735
vt 0.972904 0.467680
vt 0.972904 0.935360
vt 0.936073 0.934796
vt 0.638048 0.462755
vt 0.563706 0.461182
vt 0.565098 0.002925
vt 0.639440 0.004498
vt 0.683851 0.464640
vt 0.685243 0.006383
vt 0.889146 0.470720
vt 0.890538 0.928977
vt 0.281157 0.467680
vt 0.000000 0.467680
vt 0.000000 0.000000
vt 0.281157 0.000000
vt 0.562313 0.458259
vt 0.281157 0.458259
vt 0.281157 0.000000
vt 0.562313 0.000000
vt 0.562313 0.916518
vt 0.281157 0.916518
vt 0.887754 0.012463
vt 0.935126 0.004674
vt 0.281157 0.935360
vt 0.000000 0.935360
vt 0.682459 0.922897
vt 0.636656 0.921012
vt 0.841951 0.014348
vt 0.729831 0.930686
vt 0.562313 0.919439
vt 0.767609 0.935360
vt 0.767609 0.015922
vt 0.600000 0.000000
vt 0.600000 0.250000
vt 0.600000 0.500000
vt 0.600000 0.750000
vt 0.600000 1.000000
vt 0.437500 0.750000
vt 0.500000 0.750000
vt 0.500000 1.000000
vt 0.437500 1.000000
vt 0.437500 0.500000
vt 0.500000 0.500000
vt 0.437500 0.250000
vt 0.500000 0.250000
vt 0.500000 0.000000
vt 0.406250 0.000000
vt 0.437500 0.000000
vt 0.406250 0.250000
vt 0.406250 0.500000
vt 0.406250 0.750000
vt 0.406250 1.000000
vt 0.525000 0.750000
vt 0.525000 1.000000
vt 0.550000 0.750000
vt 0.550000 1.000000
vt 0.575000 0.750000
vt 0.575000 1.000000
vt 0.525000 0.500000
vt 0.550000 0.500000
vt 0.575000 0.500000
vt 0.525000 0.250000
vt 0.550000 0.250000
vt 0.575000 0.250000
vt 0.525000 0.000000
vt 0.550000 0.000000
vt 0.575000 0.000000
vt 0.437500 1.000000
vt 0.437500 0.250000
s 1
usemtl Material.005
f 75/1/1 2/1/2 4/2/2 76/2/3
f 76/2/3 4/2/2 8/3/2 77/3/4
f 77/3/4 8/3/2 6/4/2 78/4/5
f 78/4/5 6/4/2 2/5/2 75/5/1
f 8/3/2 4/6/2 2/7/2 6/4/2
f 3/8/6 7/9/7 12/9/8 10/8/9
f 12/10/8 14/10/10 20/10/11 18/10/12
f 9/11/13 10/8/9 16/8/14 15/11/15
f 1/11/16 3/8/6 10/8/9 9/11/13
f 5/12/17 1/13/16 9/13/13 11/12/18
f 20/10/11 19/10/11 25/10/19 26/10/19
f 19/10/11 17/10/20 23/10/21 25/10/19
f 11/12/18 9/13/13 15/13/15 17/12/20
f 10/8/9 12/9/8 18/9/12 16/8/14
f 13/10/10 11/10/18 17/10/20 19/10/11
f 14/10/10 13/10/10 19/10/11 20/10/11
f 23/12/21 21/13/22 27/13/23 29/12/24
f 24/10/25 26/10/19 32/10/26 30/10/27
f 15/11/15 16/8/14 22/8/28 21/11/22
f 18/10/12 20/10/11 26/10/19 24/10/25
f 17/12/20 15/13/15 21/13/22 23/12/21
f 16/8/14 18/9/12 24/9/25 22/8/28
f 32/10/26 31/10/26 37/10/29 38/10/29
f 31/10/26 29/10/24 35/10/30 37/10/29
f 22/8/28 24/9/25 30/9/27 28/8/31
f 25/10/19 23/10/21 29/10/24 31/10/26
f 26/10/19 25/10/19 31/10/26 32/10/26
f 21/11/22 22/8/28 28/8/31 27/11/23
f 35/12/30 33/13/32 39/13/33 41/12/34
f 36/10/35 38/10/29 44/10/36 42/10/37
f 27/11/23 28/8/31 34/8/38 33/11/32
f 30/10/27 32/10/26 38/10/29 36/10/35
f 29/12/24 27/13/23 33/13/32 35/12/30
f 28/8/31 30/9/27 36/9/35 34/8/38
f 39/11/33 40/8/39 46/8/40 45/11/41
f 44/10/36 43/10/36 49/10/42 50/10/42
f 34/8/38 36/9/35 42/9/37 40/8/39
f 37/10/29 35/10/30 41/10/34 43/10/36
f 38/10/29 37/10/29 43/10/36 44/10/36
f 33/11/32 34/8/38 40/8/39 39/11/33
f 49/10/42 47/10/43 53/10/44 55/10/45
f 46/8/40 48/9/46 54/9/47 52/8/48
f 42/10/37 44/10/36 50/10/42 48/10/46
f 41/12/34 39/13/33 45/13/41 47/12/43
f 40/8/39 42/9/37 48/9/46 46/8/40
f 43/10/36 41/10/34 47/10/43 49/10/42
f 56/10/45 55/10/45 61/10/49 62/10/49
f 55/10/45 53/10/44 59/10/50 61/10/49
f 50/10/42 49/10/42 55/10/45 56/10/45
f 45/11/41 46/8/40 52/8/48 51/11/51
f 48/10/46 50/10/42 56/10/45 54/10/47
f 47/12/43 45/13/41 51/13/51 53/12/44
f 59/12/50 57/13/52 63/13/53 65/12/54
f 60/10/55 62/10/49 68/10/56 66/10/57
f 51/11/51 52/8/48 58/8/58 57/11/52
f 54/10/47 56/10/45 62/10/49 60/10/55
f 53/12/44 51/13/51 57/13/52 59/12/50
f 52/8/48 54/9/47 60/9/55 58/8/58
f 68/10/56 67/10/56 73/10/59 74/10/59
f 67/10/56 65/10/54 71/10/60 73/10/59
f 58/8/58 60/9/55 66/9/57 64/8/61
f 61/10/49 59/10/50 65/10/54 67/10/56
f 62/10/49 61/10/49 67/10/56 68/10/56
f 57/11/52 58/8/58 64/8/61 63/11/53
f 70/14/62 72/9/63 71/12/60 69/15/64
f 71/12/60 72/9/63 74/9/59 73/12/59
f 63/11/53 64/8/61 70/8/62 69/11/64
f 66/10/57 68/10/56 74/10/59 72/10/63
f 65/12/54 63/13/53 69/13/64 71/12/60
f 64/8/61 66/9/57 72/9/63 70/8/62
f 7/10/7 5/10/17 11/10/18 13/10/10 14/10/10 12/10/8
f 5/12/17 78/4/5 75/5/1 1/13/16
f 7/9/7 77/3/4 78/4/5 5/12/17
f 3/8/6 76/2/3 77/3/4 7/9/7
f 1/11/16 75/1/1 76/2/3 3/8/6
s 0
usemtl Material.003
f 108/16/65 107/17/65 94/18/65 93/19/65
f 90/20/66 81/21/66 82/22/66 89/23/66
f 106/24/67 105/25/67 97/26/67 91/27/67
f 104/28/65 101/29/65 92/30/65 96/31/65
f 102/32/67 103/33/67 100/34/67 99/35/67
f 105/25/67 109/36/67 98/37/67 97/26/67
f 107/17/65 110/38/65 95/39/65 94/18/65
f 109/36/67 102/32/67 99/35/67 98/37/67
f 101/40/68 106/41/68 91/42/68 92/43/68
f 110/38/65 104/28/65 96/31/65 95/39/65
f 103/44/69 108/45/69 93/46/69 100/47/69
f 89/48/69 82/49/69 108/45/69 103/44/69
f 84/50/65 85/51/65 104/28/65 110/38/65
f 80/52/68 79/53/68 106/41/68 101/40/68
f 87/54/67 88/55/67 102/32/67 109/36/67
f 83/56/65 84/50/65 110/38/65 107/17/65
f 86/57/67 87/54/67 109/36/67 105/25/67
f 88/55/67 89/58/67 103/33/67 102/32/67
f 85/51/65 80/21/65 101/29/65 104/28/65
f 79/59/67 86/57/67 105/25/67 106/24/67
f 82/60/65 83/56/65 107/17/65 108/16/65
usemtl Material.006
f 134/61/70 112/1/70 114/2/70 135/62/70
f 135/62/65 114/2/65 118/3/65 139/63/65
f 139/63/71 118/3/71 116/4/71 143/64/71
f 143/64/67 116/4/67 112/5/67 134/65/67
f 113/14/72 117/9/72 115/12/72 111/15/72
f 125/66/67 122/67/67 119/68/67 126/69/67
f 124/70/73 121/71/73 122/67/73 125/66/73
f 123/72/65 120/73/65 121/71/65 124/70/65
f 152/74/74 151/73/74 148/73/74 147/74/74
f 130/75/75 126/76/75 123/72/75 127/77/75
f 127/77/65 123/72/65 124/70/65 128/78/65
f 128/78/76 124/70/76 125/66/76 129/79/76
f 129/79/67 125/66/67 126/69/67 130/80/67
f 115/12/67 129/79/67 130/80/67 111/13/67
f 117/9/77 128/78/77 129/79/77 115/12/77
f 113/8/65 127/77/65 128/78/65 117/9/65
f 111/11/78 130/75/78 127/77/78 113/8/78
f 122/67/67 146/81/67 131/82/67 119/68/67
f 146/81/67 145/83/67 132/84/67 131/82/67
f 145/83/67 144/85/67 133/86/67 132/84/67
f 144/85/67 143/64/67 134/65/67 133/86/67
f 121/71/79 142/87/79 146/81/79 122/67/79
f 142/87/80 141/88/80 145/83/80 146/81/80
f 141/88/81 140/89/81 144/85/81 145/83/81
f 140/89/82 139/63/82 143/64/82 144/85/82
f 120/73/65 138/90/65 142/87/65 121/71/65
f 138/90/65 137/91/65 141/88/65 142/87/65
f 137/91/65 136/92/65 140/89/65 141/88/65
f 136/92/65 135/62/65 139/63/65 140/89/65
f 119/74/83 131/93/83 138/90/83 120/73/83
f 131/93/84 132/94/84 137/91/84 138/90/84
f 132/94/85 133/95/85 136/92/85 137/91/85
f 133/95/86 134/61/86 135/62/86 136/92/86
f 173/73/65 172/72/65 165/72/65 164/73/65
f 154/72/87 153/76/87 150/76/87 149/72/87
f 151/73/65 154/72/65 149/72/65 148/73/65
f 153/69/88 152/68/88 147/68/88 150/69/88
f 160/69/89 161/68/89 152/68/89 153/69/89
f 159/73/65 162/72/65 154/72/65 151/73/65
f 162/72/90 160/76/90 153/76/90 154/72/90
f 161/74/91 159/73/91 151/73/91 152/74/91
f 119/74/92 120/73/92 157/73/92 155/74/92
f 123/72/93 126/76/93 158/76/93 156/72/93
f 120/73/65 123/72/65 156/72/65 157/73/65
f 126/69/67 119/68/67 155/68/67 158/69/67
f 155/74/94 157/73/94 159/73/94 161/74/94
f 156/72/95 158/76/95 160/76/95 162/72/95
f 157/73/65 156/72/65 162/72/65 159/73/65
f 158/69/96 155/68/96 161/68/96 160/69/96
f 200/73/65 199/72/65 193/72/65 192/73/65
f 185/69/67 184/68/67 163/68/67 166/69/67
f 172/72/97 185/76/97 166/76/97 165/72/97
f 184/74/98 173/73/98 164/73/98 163/74/98
f 147/74/99 148/73/99 178/73/99 179/74/99
f 179/74/99 178/73/99 177/73/99 180/74/99
f 180/74/99 177/73/99 176/73/99 181/74/99
f 181/74/100 176/73/100 175/73/100 182/74/100
f 182/74/101 175/73/101 174/73/101 183/74/101
f 183/74/102 174/73/102 173/73/102 184/74/102
f 149/72/103 150/76/103 190/76/103 167/72/103
f 167/72/104 190/76/104 189/76/104 168/72/104
f 168/72/105 189/76/105 188/76/105 169/72/105
f 169/72/106 188/76/106 187/76/106 170/72/106
f 170/72/107 187/76/107 186/76/107 171/72/107
f 171/72/108 186/76/108 185/76/108 172/72/108
f 150/69/67 147/68/67 179/68/67 190/69/67
f 190/69/67 179/68/67 180/68/67 189/69/67
f 189/69/67 180/68/67 181/68/67 188/69/67
f 188/69/67 181/68/67 182/68/67 187/69/67
f 187/69/67 182/68/67 183/68/67 186/69/67
f 186/69/67 183/68/67 184/68/67 185/69/67
f 148/73/65 149/72/65 167/72/65 178/73/65
f 178/73/65 167/72/65 168/72/65 177/73/65
f 177/73/65 168/72/65 169/72/65 176/73/65
f 176/73/65 169/72/65 170/72/65 175/73/65
f 175/73/65 170/72/65 171/72/65 174/73/65
f 174/73/65 171/72/65 172/72/65 173/73/65
f 193/72/109 194/76/109 218/76/109 217/72/109
f 210/69/67 209/68/67 191/68/67 194/69/67
f 199/72/110 210/76/110 194/76/110 193/72/110
f 209/74/111 200/73/111 192/73/111 191/74/111
f 163/74/112 164/73/112 204/73/112 205/74/112
f 205/74/113 204/73/113 203/73/113 206/74/113
f 206/74/114 203/73/114 202/73/114 207/74/114
f 207/74/115 202/73/115 201/73/115 208/74/115
f 208/74/116 201/73/116 200/73/116 209/74/116
f 165/72/117 166/76/117 214/76/117 195/72/117
f 195/72/118 214/76/118 213/76/118 196/72/118
f 196/72/119 213/76/119 212/76/119 197/72/119
f 197/72/120 212/76/120 211/76/120 198/72/120
f 198/72/121 211/76/121 210/76/121 199/72/121
f 166/69/67 163/68/67 205/68/67 214/69/67
f 214/69/67 205/68/67 206/68/67 213/69/67
f 213/69/67 206/68/67 207/68/67 212/69/67
f 212/69/67 207/68/67 208/68/67 211/69/67
f 211/69/67 208/68/67 209/68/67 210/69/67
f 164/73/65 165/72/65 195/72/65 204/73/65
f 204/73/65 195/72/65 196/72/65 203/73/65
f 203/73/65 196/72/65 197/72/65 202/73/65
f 202/73/65 197/72/65 198/72/65 201/73/65
f 201/73/65 198/72/65 199/72/65 200/73/65
f 216/73/65 217/72/65 221/72/65 220/73/65
f 191/74/122 192/73/122 216/73/122 215/74/122
f 192/73/65 193/72/65 217/72/65 216/73/65
f 194/69/67 191/68/67 215/68/67 218/69/67
f 221/72/123 222/76/123 226/76/123 225/72/123
f 218/69/67 215/68/67 219/68/67 222/69/67
f 217/72/124 218/76/124 222/76/124 221/72/124
f 215/74/125 216/73/125 220/73/125 219/74/125
f 236/68/67 237/68/67 261/68/67 260/68/67
f 219/74/126 220/73/126 224/73/126 223/74/126
f 220/73/65 221/72/65 225/72/65 224/73/65
f 222/69/67 219/68/67 223/68/67 226/69/67
f 230/76/127 227/74/127 228/73/127 229/72/127
f 235/73/65 245/72/65 229/72/65 228/73/65
f 246/69/67 236/68/67 227/68/67 230/69/67
f 295/69/128 297/69/128 281/69/128 282/69/128
f 225/72/129 226/76/129 250/76/129 241/72/129
f 241/72/129 250/76/129 249/76/129 242/72/129
f 299/72/130 295/76/130 282/76/130 275/72/130
f 298/72/65 293/72/65 277/72/65 278/72/65
f 297/69/67 294/96/67 280/69/67 281/69/67
f 226/69/67 223/68/67 240/68/67 250/69/67
f 250/69/67 240/68/67 239/68/67 249/69/67
f 249/69/67 239/68/67 238/68/67 248/69/67
f 248/69/67 238/68/67 237/68/67 247/69/67
f 247/69/67 237/68/67 236/68/67 246/69/67
f 224/73/65 225/72/65 241/72/65 231/73/65
f 231/73/65 241/72/65 242/72/65 232/73/65
f 232/73/65 242/72/65 243/72/65 233/73/65
f 233/73/65 243/72/65 244/72/65 234/73/65
f 234/73/65 244/72/65 245/72/65 235/73/65
f 227/68/67 236/68/67 260/68/67 253/68/67
f 240/68/67 223/68/67 251/68/67 264/68/67
f 234/73/65 235/73/65 259/73/65 258/73/65
f 235/73/65 228/73/65 254/73/65 259/73/65
f 233/73/65 234/73/65 258/73/65 257/73/65
f 251/74/131 252/73/131 255/73/131 264/74/131
f 237/68/67 238/68/67 262/68/67 261/68/67
f 223/74/132 224/73/132 252/73/132 251/74/132
f 224/73/65 231/73/65 255/73/65 252/73/65
f 270/68/67 269/68/67 267/68/67 265/68/67
f 238/68/67 239/68/67 263/68/67 262/68/67
f 231/73/65 232/73/65 256/73/65 255/73/65
f 239/68/67 240/68/67 264/68/67 263/68/67
f 232/73/65 233/73/65 257/73/65 256/73/65
f 266/73/133 265/74/133 267/74/133 268/73/133
f 271/73/134 270/74/134 265/74/134 266/73/134
f 272/73/65 271/73/65 266/73/65 268/73/65
f 269/74/135 272/73/135 268/73/135 267/74/135
f 253/74/136 254/73/136 272/73/136 269/74/136
f 254/73/65 228/73/65 271/73/65 272/73/65
f 228/73/134 227/74/134 270/74/134 271/73/134
f 227/68/67 253/68/67 269/68/67 270/68/67
f 278/72/137 279/76/137 274/76/137 273/72/137
f 275/72/138 282/76/138 281/76/138 276/72/138
f 276/72/139 281/76/139 280/76/139 277/72/139
f 277/72/140 280/76/140 279/76/140 278/72/140
f 300/69/141 296/69/141 274/69/141 279/69/141
f 301/97/65 298/72/65 278/72/65 273/72/65
f 296/76/142 301/97/142 273/72/142 274/76/142
f 302/72/65 299/72/65 275/72/65 276/72/65
f 294/96/67 300/69/67 279/69/67 280/69/67
f 293/72/65 302/72/65 276/72/65 277/72/65
f 244/72/65 243/72/65 292/72/65 283/72/65
f 247/69/67 246/69/67 290/69/67 285/69/67
f 243/72/65 242/72/65 288/72/65 292/72/65
f 230/76/143 229/72/143 291/72/143 289/76/143
f 229/72/65 245/72/65 286/72/65 291/72/65
f 246/69/67 230/69/67 289/69/67 290/69/67
f 248/69/67 247/69/67 285/69/67 284/69/67
f 245/72/65 244/72/65 283/72/65 286/72/65
f 242/72/144 249/76/144 287/76/144 288/72/144
f 249/69/67 248/69/67 284/69/67 287/69/67
f 283/72/65 292/72/65 302/72/65 293/72/65
f 285/69/67 290/69/67 300/69/67 294/96/67
f 292/72/65 288/72/65 299/72/65 302/72/65
f 289/76/145 291/72/145 301/97/145 296/76/145
f 291/72/65 286/72/65 298/72/65 301/97/65
f 290/69/146 289/69/146 296/69/146 300/69/146
f 284/69/67 285/69/67 294/96/67 297/69/67
f 286/72/65 283/72/65 293/72/65 298/72/65
f 288/72/147 287/76/147 295/76/147 299/72/147
f 287/69/148 284/69/148 297/69/148 295/69/148
f 112/10/67 116/4/67 303/68/67 309/68/67 310/68/67 311/68/67 312/74/67
f 118/3/149 114/6/149 112/10/149 312/74/149 305/73/149 306/73/149 307/73/149 308/73/149 304/73/149 303/10/149 116/4/149
f 312/10/150 112/10/150 114/10/150 305/10/150
f 304/10/151 118/10/151 116/10/151 303/10/151
